<svg xmlns="http://www.w3.org/2000/svg" width="25" height="26" viewBox="0 0 25 26" fill="none">
  <g clip-path="url(#clip0_275_107)">
    <path d="M14.5833 21.3334H0.694444C0.310764 21.3334 0 21.6441 0 22.0278V23.4167C0 23.8004 0.310764 24.1111 0.694444 24.1111H14.5833C14.967 24.1111 15.2778 23.8004 15.2778 23.4167V22.0278C15.2778 21.6441 14.967 21.3334 14.5833 21.3334ZM23.6111 7.44447V5.36114C23.6111 4.97746 23.3003 4.66669 22.9167 4.66669C22.533 4.66669 22.2222 4.97746 22.2222 5.36114V7.44447H20.8333V5.36114C20.8333 4.97746 20.5226 4.66669 20.1389 4.66669C19.7552 4.66669 19.4444 4.97746 19.4444 5.36114V7.44447H18.75C18.3663 7.44447 18.0556 7.75524 18.0556 8.13892V9.5278C18.0556 11.0799 19.0807 12.3789 20.4861 12.8234V17.9662C20.4861 18.5716 20.0738 19.1346 19.4766 19.2331C18.7161 19.3585 18.0556 18.7722 18.0556 18.0347V16.8195C18.0556 14.7101 16.3455 13 14.2361 13H13.8889V4.66669C13.8889 3.13241 12.6454 1.88892 11.1111 1.88892H4.16667C2.63238 1.88892 1.38889 3.13241 1.38889 4.66669V19.9445H13.8889V15.0834H14.2361C15.1949 15.0834 15.9722 15.8607 15.9722 16.8195V17.8876C15.9722 19.6094 17.2274 21.1498 18.9414 21.3169C20.9076 21.5091 22.5694 19.9623 22.5694 18.0347V12.8234C23.9748 12.3789 25 11.0799 25 9.5278V8.13892C25 7.75524 24.6892 7.44447 24.3056 7.44447H23.6111ZM11.2886 9.51739L7.22179 15.5504C7.1263 15.6949 6.95226 15.7778 6.77083 15.7778C6.43793 15.7778 6.1862 15.5052 6.26432 15.217L7.26345 11.6111H4.6875C4.37283 11.6111 4.12977 11.3685 4.17144 11.0951L4.86589 6.45098C4.90017 6.22485 5.12066 6.05558 5.38194 6.05558H8.33333C8.67535 6.05558 8.92448 6.33944 8.83681 6.62893L8.33333 8.83336H10.8377C11.2387 8.83336 11.4891 9.21444 11.2886 9.51739Z" fill="white"/>
  </g>
  <defs>
    <clipPath id="clip0_275_107">
      <rect width="25" height="25" fill="white" transform="translate(0 0.5)"/>
    </clipPath>
  </defs>
</svg>