<svg xmlns="http://www.w3.org/2000/svg" width="16" height="16" viewBox="0 0 16 16" fill="none">
  <path d="M8.68439 0.745788V1.26248C8.68439 1.59757 8.91021 1.88772 9.23293 1.97788C11.6372 2.64946 13.3988 4.85418 13.3988 7.47444C13.3988 10.6284 10.8463 13.1813 7.69189 13.1813C4.53794 13.1813 1.98502 10.6289 1.98502 7.47444C1.98502 4.85455 3.74627 2.64953 6.15079 1.97788C6.47357 1.88772 6.69939 1.59751 6.69939 1.26238V0.746036C6.69939 0.258812 6.2393 -0.0961312 5.76749 0.0254191C2.43794 0.883063 -0.0187803 3.91403 0.000108177 7.51575C0.0224394 11.7665 3.45764 15.1752 7.70845 15.1663C11.9489 15.1574 15.3838 11.717 15.3838 7.47444C15.3838 3.88801 12.9292 0.874968 9.60831 0.023372C9.13964 -0.0968135 8.68439 0.261944 8.68439 0.745788Z" fill="#94A1B2"/>
</svg>