<svg width="20" height="17" viewBox="0 0 20 17" fill="none" xmlns="http://www.w3.org/2000/svg">
<path d="M18.3333 0.722229H1.66667C0.746528 0.722229 0 1.46876 0 2.3889V14.6111C0 15.5313 0.746528 16.2778 1.66667 16.2778H18.3333C19.2535 16.2778 20 15.5313 20 14.6111V2.3889C20 1.46876 19.2535 0.722229 18.3333 0.722229ZM6.11111 4.05556C7.33681 4.05556 8.33333 5.05209 8.33333 6.27778C8.33333 7.50348 7.33681 8.50001 6.11111 8.50001C4.88542 8.50001 3.88889 7.50348 3.88889 6.27778C3.88889 5.05209 4.88542 4.05556 6.11111 4.05556ZM10 12.2778C10 12.6458 9.65278 12.9445 9.22222 12.9445H3C2.56944 12.9445 2.22222 12.6458 2.22222 12.2778V11.6111C2.22222 10.507 3.26736 9.61112 4.55556 9.61112H4.72917C5.15625 9.7882 5.62153 9.8889 6.11111 9.8889C6.60069 9.8889 7.06944 9.7882 7.49306 9.61112H7.66667C8.95486 9.61112 10 10.507 10 11.6111V12.2778ZM17.7778 10.4445C17.7778 10.5972 17.6528 10.7222 17.5 10.7222H12.5C12.3472 10.7222 12.2222 10.5972 12.2222 10.4445V9.8889C12.2222 9.73612 12.3472 9.61112 12.5 9.61112H17.5C17.6528 9.61112 17.7778 9.73612 17.7778 9.8889V10.4445ZM17.7778 8.22223C17.7778 8.37501 17.6528 8.50001 17.5 8.50001H12.5C12.3472 8.50001 12.2222 8.37501 12.2222 8.22223V7.66667C12.2222 7.5139 12.3472 7.3889 12.5 7.3889H17.5C17.6528 7.3889 17.7778 7.5139 17.7778 7.66667V8.22223ZM17.7778 6.00001C17.7778 6.15278 17.6528 6.27778 17.5 6.27778H12.5C12.3472 6.27778 12.2222 6.15278 12.2222 6.00001V5.44445C12.2222 5.29167 12.3472 5.16667 12.5 5.16667H17.5C17.6528 5.16667 17.7778 5.29167 17.7778 5.44445V6.00001Z" fill="#5F5F5F"/>
</svg>
