<svg xmlns="http://www.w3.org/2000/svg" width="16" height="16" viewBox="0 0 16 16" fill="none">
  <path d="M10.4213 13.895H0.49625C0.223312 13.895 0 14.1183 0 14.3912V15.3837C0 15.6567 0.223312 15.88 0.49625 15.88H10.4213C10.6942 15.88 10.9175 15.6567 10.9175 15.3837V14.3912C10.9175 14.1183 10.6942 13.895 10.4213 13.895ZM15.2969 3.32798L12.7846 0.815711C12.5923 0.623414 12.276 0.623414 12.0837 0.815711L11.7332 1.16619C11.5409 1.35848 11.5409 1.67484 11.7332 1.86714L12.9025 3.03643V4.9625C12.9025 5.83404 13.5507 6.5536 14.3912 6.67456V11.6619C14.3912 12.0713 14.0563 12.4062 13.6469 12.4062C13.2375 12.4062 12.9025 12.0713 12.9025 11.6619V10.6694C12.9025 9.16202 11.6805 7.94 10.1731 7.94H9.925V1.985C9.925 0.890148 9.03485 0 7.94 0H2.9775C1.88265 0 0.9925 0.890148 0.9925 1.985V12.9025H9.925V9.42875H10.1731C10.8586 9.42875 11.4137 9.98393 11.4137 10.6694V11.5316C11.4137 12.7009 12.2512 13.7647 13.4143 13.8857C14.7479 14.0191 15.88 12.9707 15.88 11.6619V4.73298C15.88 4.20572 15.6691 3.70016 15.2969 3.32798ZM7.94 5.955H2.9775V1.985H7.94V5.955Z" fill="#94A1B2"/>
</svg>