<svg width="16" height="13" viewBox="0 0 16 13" fill="none" xmlns="http://www.w3.org/2000/svg">
  <path d="M7.94 0C3.5548 0 0 3.5548 0 7.94C0 9.39567 0.392865 10.7593 1.07686 11.9321C1.23153 12.1973 1.52624 12.3511 1.83337 12.3511H14.0466C14.3538 12.3511 14.6485 12.1973 14.8031 11.9321C15.4871 10.7593 15.88 9.39567 15.88 7.94C15.88 3.5548 12.3252 0 7.94 0ZM7.94 1.76444C8.34555 1.76444 8.6728 2.04372 8.77591 2.41646C8.7453 2.47877 8.70312 2.53308 8.68079 2.60035L8.4266 3.3632C8.28517 3.45941 8.12416 3.52889 7.94028 3.52889C7.45312 3.52889 7.05805 3.13382 7.05805 2.64667C7.05805 2.15951 7.45285 1.76444 7.94 1.76444ZM2.64667 9.70444C2.15951 9.70444 1.76444 9.30937 1.76444 8.82222C1.76444 8.33507 2.15951 7.94 2.64667 7.94C3.13382 7.94 3.52889 8.33507 3.52889 8.82222C3.52889 9.30937 3.13382 9.70444 2.64667 9.70444ZM3.97 5.29333C3.48285 5.29333 3.08778 4.89826 3.08778 4.41111C3.08778 3.92396 3.48285 3.52889 3.97 3.52889C4.45715 3.52889 4.85222 3.92396 4.85222 4.41111C4.85222 4.89826 4.45715 5.29333 3.97 5.29333ZM10.7733 3.29703L9.08248 8.36981C9.4599 8.69347 9.70444 9.16794 9.70444 9.70444C9.70444 10.0276 9.61126 10.3261 9.45963 10.5867H6.42037C6.26874 10.3261 6.17556 10.0276 6.17556 9.70444C6.17556 8.76874 6.90615 8.01085 7.82697 7.9513L9.51807 2.87825C9.63304 2.53198 10.0069 2.34202 10.3551 2.46002C10.7016 2.57554 10.8886 2.95048 10.7733 3.29703ZM11.1775 4.874L11.6054 3.59064C11.701 3.55508 11.8019 3.52916 11.91 3.52916C12.3972 3.52916 12.7922 3.92423 12.7922 4.41139C12.7922 4.89854 12.3972 5.29361 11.91 5.29361C11.5963 5.29333 11.3341 5.12047 11.1775 4.874ZM13.2333 9.70444C12.7462 9.70444 12.3511 9.30937 12.3511 8.82222C12.3511 8.33507 12.7462 7.94 13.2333 7.94C13.7205 7.94 14.1156 8.33507 14.1156 8.82222C14.1156 9.30937 13.7205 9.70444 13.2333 9.70444Z" fill="#94A1B2"/>
</svg>