<svg width="89" height="67" viewBox="0 0 89 67" fill="none" xmlns="http://www.w3.org/2000/svg">
<path d="M13.5204 25.9695H67.5304M24.3134 12.8445C29.9474 11.2615 31.0374 11.2745 31.0374 11.2745C33.6504 10.8295 37.8754 10.9375 40.4574 11.5115L48.8384 13.3745C51.4284 13.9505 55.0024 15.9805 56.8184 17.9055L63.1664 24.6375L69.4114 26.5145C72.5094 27.0225 75.0204 29.9455 75.0204 33.0215V37.2275C75.0204 37.5175 72.4844 41.4165 69.3334 41.4165H13.8284C11.1734 41.4165 9.48838 39.3165 10.1404 36.7465C10.1404 36.7465 13.8504 16.8025 24.3134 12.8445Z" stroke="#002742" stroke-width="3" stroke-linecap="round" stroke-linejoin="round"/>
<path d="M60.5134 47.5275C64.3363 47.5275 67.4354 44.4795 67.4354 40.7195C67.4354 36.9596 64.3363 33.9115 60.5134 33.9115C56.6905 33.9115 53.5914 36.9596 53.5914 40.7195C53.5914 44.4795 56.6905 47.5275 60.5134 47.5275Z" fill="white" stroke="#002742" stroke-width="3.2" stroke-linecap="round" stroke-linejoin="round"/>
<path d="M23.5314 47.5275C27.3543 47.5275 30.4534 44.4795 30.4534 40.7195C30.4534 36.9596 27.3543 33.9115 23.5314 33.9115C19.7085 33.9115 16.6094 36.9596 16.6094 40.7195C16.6094 44.4795 19.7085 47.5275 23.5314 47.5275Z" fill="white" stroke="#002742" stroke-width="3.2" stroke-linecap="round" stroke-linejoin="round"/>
<path d="M8.05824 55.2727V64H6.46449L2.66761 58.5071H2.60369V64H0.758523V55.2727H2.37784L6.14489 60.7614H6.22159V55.2727H8.05824ZM12.506 64.1278C11.8441 64.1278 11.2717 63.9872 10.7887 63.706C10.3086 63.4219 9.93786 63.027 9.67649 62.5213C9.41513 62.0128 9.28445 61.4233 9.28445 60.7528C9.28445 60.0767 9.41513 59.4858 9.67649 58.9801C9.93786 58.4716 10.3086 58.0767 10.7887 57.7955C11.2717 57.5114 11.8441 57.3693 12.506 57.3693C13.168 57.3693 13.739 57.5114 14.2191 57.7955C14.7021 58.0767 15.0742 58.4716 15.3356 58.9801C15.5969 59.4858 15.7276 60.0767 15.7276 60.7528C15.7276 61.4233 15.5969 62.0128 15.3356 62.5213C15.0742 63.027 14.7021 63.4219 14.2191 63.706C13.739 63.9872 13.168 64.1278 12.506 64.1278ZM12.5146 62.7216C12.8157 62.7216 13.0671 62.6364 13.2688 62.4659C13.4705 62.2926 13.6225 62.0568 13.7248 61.7585C13.8299 61.4602 13.8825 61.1207 13.8825 60.7401C13.8825 60.3594 13.8299 60.0199 13.7248 59.7216C13.6225 59.4233 13.4705 59.1875 13.2688 59.0142C13.0671 58.8409 12.8157 58.7543 12.5146 58.7543C12.2106 58.7543 11.9549 58.8409 11.7475 59.0142C11.543 59.1875 11.3881 59.4233 11.283 59.7216C11.1808 60.0199 11.1296 60.3594 11.1296 60.7401C11.1296 61.1207 11.1808 61.4602 11.283 61.7585C11.3881 62.0568 11.543 62.2926 11.7475 62.4659C11.9549 62.6364 12.2106 62.7216 12.5146 62.7216ZM27.4197 58.3281H25.5533C25.5192 58.0866 25.4496 57.8722 25.3445 57.6847C25.2393 57.4943 25.1044 57.3324 24.9396 57.1989C24.7749 57.0653 24.5845 56.9631 24.3686 56.892C24.1555 56.821 23.924 56.7855 23.674 56.7855C23.2223 56.7855 22.8288 56.8977 22.4936 57.1222C22.1584 57.3437 21.8984 57.6676 21.7138 58.0938C21.5291 58.517 21.4368 59.0312 21.4368 59.6364C21.4368 60.2585 21.5291 60.7812 21.7138 61.2045C21.9013 61.6278 22.1626 61.9474 22.4979 62.1634C22.8331 62.3793 23.2209 62.4872 23.6612 62.4872C23.9084 62.4872 24.1371 62.4545 24.3473 62.3892C24.5604 62.3239 24.7493 62.2287 24.9141 62.1037C25.0788 61.9759 25.2152 61.821 25.3232 61.6392C25.4339 61.4574 25.5107 61.25 25.5533 61.017L27.4197 61.0256C27.3714 61.4261 27.2507 61.8125 27.0575 62.1847C26.8672 62.554 26.6101 62.8849 26.2862 63.1776C25.9652 63.4673 25.5817 63.6974 25.1357 63.8679C24.6925 64.0355 24.1911 64.1193 23.6314 64.1193C22.853 64.1193 22.157 63.9432 21.5433 63.5909C20.9325 63.2386 20.4496 62.7287 20.0945 62.0611C19.7422 61.3935 19.5661 60.5852 19.5661 59.6364C19.5661 58.6847 19.745 57.875 20.103 57.2074C20.4609 56.5398 20.9467 56.0312 21.5604 55.6818C22.174 55.3295 22.8643 55.1534 23.6314 55.1534C24.1371 55.1534 24.6058 55.2244 25.0376 55.3665C25.4723 55.5085 25.8572 55.7159 26.1925 55.9886C26.5277 56.2585 26.8004 56.5895 27.0107 56.9815C27.2237 57.3736 27.3601 57.8224 27.4197 58.3281ZM30.5753 64.1236C30.1577 64.1236 29.7855 64.0511 29.4588 63.9062C29.1321 63.7585 28.8736 63.5412 28.6832 63.2543C28.4957 62.9645 28.402 62.6037 28.402 62.1719C28.402 61.8082 28.4688 61.5028 28.6023 61.2557C28.7358 61.0085 28.9176 60.8097 29.1477 60.6591C29.3778 60.5085 29.6392 60.3949 29.9318 60.3182C30.2273 60.2415 30.5369 60.1875 30.8608 60.1562C31.2415 60.1165 31.5483 60.0795 31.7812 60.0455C32.0142 60.0085 32.1832 59.9545 32.2884 59.8835C32.3935 59.8125 32.446 59.7074 32.446 59.5682V59.5426C32.446 59.2727 32.3608 59.0639 32.1903 58.9162C32.0227 58.7685 31.7841 58.6946 31.4744 58.6946C31.1477 58.6946 30.8878 58.767 30.6946 58.9119C30.5014 59.054 30.3736 59.233 30.3111 59.4489L28.6321 59.3125C28.7173 58.9148 28.8849 58.571 29.1349 58.2812C29.3849 57.9886 29.7074 57.7642 30.1023 57.608C30.5 57.4489 30.9602 57.3693 31.483 57.3693C31.8466 57.3693 32.1946 57.4119 32.527 57.4972C32.8622 57.5824 33.1591 57.7145 33.4176 57.8935C33.679 58.0724 33.8849 58.3026 34.0355 58.5838C34.1861 58.8622 34.2614 59.196 34.2614 59.5852V64H32.5398V63.0923H32.4886C32.3835 63.2969 32.2429 63.4773 32.0668 63.6335C31.8906 63.7869 31.679 63.9077 31.4318 63.9957C31.1847 64.081 30.8991 64.1236 30.5753 64.1236ZM31.0952 62.8707C31.3622 62.8707 31.598 62.8182 31.8026 62.7131C32.0071 62.6051 32.1676 62.4602 32.2841 62.2784C32.4006 62.0966 32.4588 61.8906 32.4588 61.6605V60.9659C32.402 61.0028 32.3239 61.0369 32.2244 61.0682C32.1278 61.0966 32.0185 61.1236 31.8963 61.1491C31.7741 61.1719 31.652 61.1932 31.5298 61.2131C31.4077 61.2301 31.2969 61.2457 31.1974 61.2599C30.9844 61.2912 30.7983 61.3409 30.6392 61.4091C30.4801 61.4773 30.3565 61.5696 30.2685 61.6861C30.1804 61.7997 30.1364 61.9418 30.1364 62.1122C30.1364 62.3594 30.2259 62.5483 30.4048 62.679C30.5866 62.8068 30.8168 62.8707 31.0952 62.8707ZM35.6697 64V57.4545H37.4297V58.5966H37.4979C37.6172 58.1903 37.8175 57.8835 38.0987 57.6761C38.38 57.4659 38.7038 57.3608 39.0703 57.3608C39.1612 57.3608 39.2592 57.3665 39.3643 57.3778C39.4695 57.3892 39.5618 57.4048 39.6413 57.4247V59.0355C39.5561 59.0099 39.4382 58.9872 39.2876 58.9673C39.1371 58.9474 38.9993 58.9375 38.8743 58.9375C38.6072 58.9375 38.3686 58.9957 38.1584 59.1122C37.951 59.2259 37.7862 59.3849 37.6641 59.5895C37.5447 59.794 37.4851 60.0298 37.4851 60.2969V64H35.6697ZM43.3913 64V55.2727H49.1697V56.794H45.2365V58.8736H48.7862V60.3949H45.2365V64H43.3913ZM52.8537 64.1278C52.1918 64.1278 51.6193 63.9872 51.1364 63.706C50.6563 63.4219 50.2855 63.027 50.0241 62.5213C49.7628 62.0128 49.6321 61.4233 49.6321 60.7528C49.6321 60.0767 49.7628 59.4858 50.0241 58.9801C50.2855 58.4716 50.6563 58.0767 51.1364 57.7955C51.6193 57.5114 52.1918 57.3693 52.8537 57.3693C53.5156 57.3693 54.0866 57.5114 54.5668 57.7955C55.0497 58.0767 55.4219 58.4716 55.6832 58.9801C55.9446 59.4858 56.0753 60.0767 56.0753 60.7528C56.0753 61.4233 55.9446 62.0128 55.6832 62.5213C55.4219 63.027 55.0497 63.4219 54.5668 63.706C54.0866 63.9872 53.5156 64.1278 52.8537 64.1278ZM52.8622 62.7216C53.1634 62.7216 53.4148 62.6364 53.6165 62.4659C53.8182 62.2926 53.9702 62.0568 54.0724 61.7585C54.1776 61.4602 54.2301 61.1207 54.2301 60.7401C54.2301 60.3594 54.1776 60.0199 54.0724 59.7216C53.9702 59.4233 53.8182 59.1875 53.6165 59.0142C53.4148 58.8409 53.1634 58.7543 52.8622 58.7543C52.5582 58.7543 52.3026 58.8409 52.0952 59.0142C51.8906 59.1875 51.7358 59.4233 51.6307 59.7216C51.5284 60.0199 51.4773 60.3594 51.4773 60.7401C51.4773 61.1207 51.5284 61.4602 51.6307 61.7585C51.7358 62.0568 51.8906 62.2926 52.0952 62.4659C52.3026 62.6364 52.5582 62.7216 52.8622 62.7216ZM61.4531 61.2131V57.4545H63.2685V64H61.5256V62.8111H61.4574C61.3097 63.1946 61.0639 63.5028 60.7202 63.7358C60.3793 63.9687 59.9631 64.0852 59.4716 64.0852C59.0341 64.0852 58.6491 63.9858 58.3168 63.7869C57.9844 63.5881 57.7244 63.3054 57.5369 62.9389C57.3523 62.5724 57.2585 62.1335 57.2557 61.6222V57.4545H59.071V61.2983C59.0739 61.6847 59.1776 61.9901 59.3821 62.2145C59.5866 62.4389 59.8608 62.5511 60.2045 62.5511C60.4233 62.5511 60.6278 62.5014 60.8182 62.402C61.0085 62.2997 61.1619 62.1491 61.2784 61.9503C61.3977 61.7514 61.456 61.5057 61.4531 61.2131ZM66.5359 60.2159V64H64.7205V57.4545H66.4506V58.6094H66.5273C66.6722 58.2287 66.9151 57.9276 67.256 57.706C67.5969 57.4815 68.0103 57.3693 68.4961 57.3693C68.9506 57.3693 69.3469 57.4688 69.685 57.6676C70.0231 57.8665 70.2859 58.1506 70.4734 58.5199C70.6609 58.8864 70.7546 59.3239 70.7546 59.8324V64H68.9393V60.1562C68.9421 59.7557 68.8398 59.4432 68.6325 59.2188C68.4251 58.9915 68.1396 58.8778 67.7759 58.8778C67.5316 58.8778 67.3157 58.9304 67.1282 59.0355C66.9435 59.1406 66.7987 59.294 66.6935 59.4957C66.5913 59.6946 66.5387 59.9347 66.5359 60.2159ZM74.5973 64.1065C74.1001 64.1065 73.6499 63.9787 73.2464 63.723C72.8459 63.4645 72.5277 63.0852 72.2919 62.5852C72.0589 62.0824 71.9425 61.4659 71.9425 60.7358C71.9425 59.9858 72.0632 59.3622 72.3047 58.8651C72.5462 58.3651 72.8672 57.9915 73.2678 57.7443C73.6712 57.4943 74.1129 57.3693 74.593 57.3693C74.9595 57.3693 75.2649 57.4318 75.5092 57.5568C75.7564 57.679 75.9553 57.8324 76.1058 58.017C76.2592 58.1989 76.3757 58.3778 76.4553 58.554H76.5107V55.2727H78.3217V64H76.532V62.9517H76.4553C76.37 63.1335 76.2493 63.3139 76.093 63.4929C75.9396 63.669 75.7393 63.8153 75.4922 63.9318C75.2479 64.0483 74.9496 64.1065 74.5973 64.1065ZM75.1726 62.6619C75.4652 62.6619 75.7124 62.5824 75.9141 62.4233C76.1186 62.2614 76.2749 62.0355 76.3828 61.7457C76.4936 61.456 76.549 61.1165 76.549 60.7273C76.549 60.3381 76.495 60 76.3871 59.7131C76.2791 59.4261 76.1229 59.2045 75.9183 59.0483C75.7138 58.892 75.4652 58.8139 75.1726 58.8139C74.8743 58.8139 74.6229 58.8949 74.4183 59.0568C74.2138 59.2187 74.0589 59.4432 73.9538 59.7301C73.8487 60.017 73.7962 60.3494 73.7962 60.7273C73.7962 61.108 73.8487 61.4446 73.9538 61.7372C74.0618 62.027 74.2166 62.2543 74.4183 62.419C74.6229 62.581 74.8743 62.6619 75.1726 62.6619ZM81.9833 55.2727L81.8171 61.3835H80.2575L80.087 55.2727H81.9833ZM81.0373 64.1108C80.756 64.1108 80.5146 64.0114 80.3129 63.8125C80.1112 63.6108 80.0117 63.3693 80.0146 63.0881C80.0117 62.8097 80.1112 62.571 80.3129 62.3722C80.5146 62.1733 80.756 62.0739 81.0373 62.0739C81.3072 62.0739 81.5444 62.1733 81.7489 62.3722C81.9535 62.571 82.0572 62.8097 82.06 63.0881C82.0572 63.2756 82.0075 63.4474 81.9109 63.6037C81.8171 63.7571 81.6935 63.8807 81.5401 63.9744C81.3867 64.0653 81.2191 64.1108 81.0373 64.1108Z" fill="#002742"/>
<circle cx="14" cy="11" r="10" fill="#CAD4DA" stroke="#002742" stroke-width="2"/>
<path d="M15.8955 11L18.7384 8.1571C19.0872 7.80824 19.0872 7.24261 18.7384 6.89347L18.1065 6.26165C17.7577 5.91278 17.192 5.91278 16.8429 6.26165L14 9.10455L11.1571 6.26165C10.8082 5.91278 10.2426 5.91278 9.89347 6.26165L9.26165 6.89347C8.91278 7.24233 8.91278 7.80795 9.26165 8.1571L12.1045 11L9.26165 13.8429C8.91278 14.1918 8.91278 14.7574 9.26165 15.1065L9.89347 15.7384C10.2423 16.0872 10.8082 16.0872 11.1571 15.7384L14 12.8955L16.8429 15.7384C17.1918 16.0872 17.7577 16.0872 18.1065 15.7384L18.7384 15.1065C19.0872 14.7577 19.0872 14.192 18.7384 13.8429L15.8955 11Z" fill="#002742"/>
</svg>
