<svg width="20" height="21" viewBox="0 0 20 21" fill="none" xmlns="http://www.w3.org/2000/svg">
<path d="M19.4293 14.6329L15.0543 12.7579C14.8674 12.6783 14.6597 12.6615 14.4624 12.7101C14.2652 12.7587 14.089 12.8701 13.9605 13.0274L12.023 15.3946C8.98232 13.961 6.53524 11.5139 5.10156 8.47315L7.46875 6.53565C7.62644 6.4074 7.73804 6.23126 7.78668 6.03391C7.83531 5.83656 7.81832 5.62873 7.73828 5.4419L5.86328 1.0669C5.77543 0.865497 5.62007 0.701059 5.42397 0.601939C5.22787 0.502819 5.00332 0.475231 4.78906 0.523932L0.726562 1.46143C0.519988 1.50913 0.335682 1.62545 0.203725 1.79139C0.0717677 1.95733 -4.75863e-05 2.16309 2.36571e-08 2.3751C2.36571e-08 12.3946 8.12109 20.5001 18.125 20.5001C18.3371 20.5002 18.5429 20.4285 18.709 20.2965C18.875 20.1645 18.9913 19.9802 19.0391 19.7735L19.9766 15.711C20.025 15.4957 19.9968 15.2703 19.8969 15.0735C19.797 14.8767 19.6317 14.7209 19.4293 14.6329Z" fill="#5F5F5F"/>
</svg>
