<svg xmlns="http://www.w3.org/2000/svg" width="16" height="13" viewBox="0 0 16 13" fill="none">
  <path d="M0 3.36509V2.88447C0 2.4863 0.32277 2.16353 0.720937 2.16353H11.535V0.721656C11.535 0.0798118 12.313 -0.240855 12.7657 0.211863L15.1689 2.61499C15.4504 2.89654 15.4504 3.35302 15.1689 3.63454L12.7657 6.03767C12.3147 6.48862 11.535 6.17242 11.535 5.52791V4.08603H0.720937C0.32277 4.08603 0 3.76326 0 3.36509ZM14.6591 7.93103H3.845V6.48916C3.845 5.8489 3.06813 5.5255 2.61427 5.97936L0.211145 8.38249C-0.0703815 8.66404 -0.0703815 9.12052 0.211145 9.40204L2.61427 11.8052C3.0657 12.2566 3.845 11.9394 3.845 11.2954V9.85353H14.6591C15.0572 9.85353 15.38 9.53076 15.38 9.13259V8.65197C15.38 8.2538 15.0572 7.93103 14.6591 7.93103Z" fill="#94A1B2"/>
</svg>