<svg xmlns="http://www.w3.org/2000/svg" width="16" height="18" viewBox="0 0 16 18" fill="none">
  <path d="M15.5084 4.37726C15.0125 3.52403 8.92986 0 7.93917 0C6.94847 0 0.863398 3.51514 0.370614 4.37726C-0.122169 5.23937 -0.124905 12.27 0.370614 13.1318C0.866134 13.9935 6.9495 17.509 7.93917 17.509C8.92884 17.509 15.0125 13.9894 15.5081 13.1318C16.0036 12.2741 16.0043 5.23219 15.5084 4.37726ZM9.98998 14.1652C9.85319 14.1652 8.59097 12.942 8.69048 12.8421C8.72023 12.8124 8.90456 12.7915 9.29064 12.7795C9.29064 11.8825 9.31082 10.4339 9.32279 9.82763C9.32279 9.75923 9.30774 9.71033 9.30774 9.62757H6.57435C6.57435 9.87038 6.55862 10.8655 6.6212 12.1199C6.62907 12.2751 6.56717 12.3251 6.42491 12.323C6.07849 12.323 5.73173 12.3192 5.38497 12.3203C5.24476 12.3203 5.18423 12.268 5.18868 12.1113C5.22014 10.9678 5.29127 9.23875 5.18355 4.83858V4.73018C4.85286 4.71821 4.62339 4.69598 4.5933 4.66725C4.49344 4.5674 5.77448 3.34416 5.90956 3.34416C6.04464 3.34416 7.31746 4.56774 7.21829 4.66725C7.18854 4.697 6.94813 4.71821 6.6448 4.73018V4.83824C6.56204 5.71882 6.5764 7.56 6.55486 8.4423H9.29954C9.29954 8.2867 9.31287 7.25428 9.2585 5.58203C9.25508 5.4661 9.29099 5.40523 9.40247 5.4042C9.78104 5.40147 10.1599 5.39976 10.5388 5.40215C10.6572 5.40215 10.6951 5.46097 10.6927 5.58613C10.5669 12.1277 10.6695 11.6712 10.6695 12.7792C10.9728 12.7912 11.2447 12.8134 11.2744 12.8421C11.3729 12.9416 10.1254 14.1652 9.98998 14.1652Z" fill="#94A1B2"/>
</svg>