<svg width="34" height="34" viewBox="0 0 32 32" fill="none" xmlns="http://www.w3.org/2000/svg">
    <circle cx="16" cy="16" r="15.5" fill="#0E0E0E" stroke="#FB0000"/>
    <path d="M24.508 13.9765C24.6853 13.8526 24.8283 13.7569 24.9675 13.6551C25.2822 13.4238 25.3491 13.2275 25.1884 13.0024C24.9872 12.7202 24.7565 12.8251 24.5258 12.96C24.2614 13.1146 23.9878 13.2557 23.7357 13.4281C23.5308 13.5686 23.4431 13.5428 23.3388 13.3091C22.9002 12.3214 22.4413 11.3423 21.9873 10.3614C21.5935 9.51056 20.9402 9.01365 19.9881 9.00936C17.1815 8.99648 14.375 8.99709 11.5684 9.00997C10.7341 9.01365 10.1028 9.41179 9.70164 10.1461C9.55502 10.4142 9.43356 10.6958 9.30412 10.9724C8.9569 11.7141 8.61398 12.4576 8.26308 13.1974C8.08702 13.5686 8.08088 13.5661 7.74471 13.3569C7.4938 13.2011 7.24535 13.0404 6.99322 12.887C6.77115 12.7515 6.5546 12.7312 6.38713 12.9692C6.21597 13.2128 6.33253 13.3944 6.52822 13.5612C6.68281 13.6931 6.87789 13.7802 7.01224 13.9661C6.26014 14.3299 5.96261 14.9249 6.00372 15.7335C6.03623 16.377 6.02151 17.0236 6.01046 17.6689C5.99329 18.6817 6.38222 19.47 7.25885 20.0044C7.53429 20.1724 7.64901 20.4062 7.62876 20.746C7.54043 22.2183 8.90046 23.3268 10.2654 22.9121C11.1371 22.6471 11.7015 21.8337 11.7279 20.7607C11.734 20.5092 11.7966 20.4332 12.0592 20.4344C14.3946 20.4454 16.7294 20.4405 19.0648 20.4418C19.3157 20.4418 19.6262 20.3669 19.8004 20.4853C19.9685 20.6 19.8544 20.9337 19.8826 21.1699C20.0004 22.1453 20.7782 22.9048 21.7542 22.9827C22.7229 23.06 23.6259 22.4226 23.878 21.4785C23.9578 21.1804 23.9823 20.8742 23.9639 20.5675C23.9498 20.3326 24.0437 20.1743 24.2443 20.0565C25.1957 19.4958 25.6074 18.6505 25.5742 17.5622C25.5589 17.0487 25.5491 16.5328 25.5785 16.0212C25.6294 15.1347 25.4411 14.3845 24.508 13.9765ZM8.9661 13.6342C9.43908 12.6502 9.90162 11.6613 10.355 10.6688C10.6218 10.0841 11.066 9.8136 11.704 9.81667C13.0738 9.82281 14.4443 9.81851 15.8141 9.81851C17.1515 9.81851 18.4888 9.82771 19.8255 9.81422C20.5052 9.80747 20.9653 10.0774 21.2432 10.7099C21.6733 11.6889 22.1334 12.6551 22.5898 13.6226C22.6781 13.8103 22.6879 13.8863 22.4444 13.9477C17.998 15.0697 13.5566 15.066 9.11394 13.9305C8.92132 13.8821 8.86918 13.8354 8.9661 13.6342ZM10.2587 22.0153C9.76912 22.2999 9.16916 22.1993 8.77164 21.765C8.45816 21.4227 8.42258 21.0067 8.44896 20.5718C8.45755 20.4258 8.5557 20.4338 8.65631 20.4338C8.99493 20.4344 9.33295 20.4338 9.67158 20.4338C9.99916 20.4338 10.3268 20.4319 10.6543 20.435C10.7445 20.4356 10.8396 20.4043 10.8825 20.5497C11.0322 21.0601 10.7562 21.7263 10.2587 22.0153ZM22.5511 21.9834C22.0984 22.2772 21.5064 22.2281 21.096 21.8552C20.7193 21.5128 20.6653 21.0681 20.704 20.5939C20.7163 20.443 20.8064 20.4307 20.9285 20.4319C21.2671 20.4368 21.6064 20.4338 21.9456 20.4338C22.2628 20.4338 22.5799 20.4319 22.8971 20.435C22.9873 20.4356 23.0824 20.4025 23.1241 20.5491C23.2621 21.0344 23.01 21.6858 22.5511 21.9834ZM24.7804 15.8427C24.7534 16.4549 24.7724 17.0665 24.7596 17.6781C24.7363 18.8136 24.0762 19.524 22.9394 19.5915C22.2843 19.6301 21.6254 19.6136 20.9678 19.6142C19.2366 19.6167 17.5054 19.6148 15.7736 19.6148C13.5492 19.6148 11.3248 19.6148 9.10045 19.6148C7.54963 19.6148 6.89752 19.0118 6.82023 17.4659C6.78833 16.8334 6.79692 16.1979 6.81655 15.5648C6.83863 14.8415 7.63981 14.3575 8.48638 14.5654C9.1759 14.7348 9.84641 14.9771 10.5445 15.1194C12.9352 15.6077 15.351 15.6648 17.7747 15.5378C19.4973 15.4482 21.1923 15.1679 22.8394 14.6489C23.1946 14.5372 23.5241 14.4575 23.8909 14.5869C24.5044 14.8041 24.8093 15.1893 24.7804 15.8427Z" fill="white"/>
    <path d="M15.7781 17.1518C16.786 17.1518 17.7933 17.1518 18.8012 17.1518C18.9436 17.1518 19.0859 17.1499 19.2227 17.2021C19.3932 17.2677 19.438 17.4021 19.438 17.5677C19.438 17.7346 19.3883 17.8695 19.2184 17.9315C19.0718 17.9849 18.9178 17.9849 18.7638 17.9849C16.7811 17.9842 14.7991 17.9855 12.8164 17.9824C12.6753 17.9824 12.5317 17.9664 12.3943 17.9358C12.2035 17.8928 12.1373 17.7407 12.1397 17.5634C12.1422 17.388 12.2041 17.2346 12.398 17.1935C12.525 17.1665 12.6575 17.1536 12.7875 17.1536C13.7844 17.1506 14.7813 17.1518 15.7781 17.1518Z" fill="white"/>
    <path d="M21.0547 17.2156C21.0522 16.534 21.5688 16.0028 22.246 15.9899C22.9319 15.977 23.4871 16.5175 23.4913 17.2021C23.4956 17.8898 22.9558 18.4229 22.2583 18.4192C21.5694 18.4155 21.0572 17.9033 21.0547 17.2156Z" fill="#EC1C24"/>
    <path d="M10.4231 17.2131C10.4231 17.8996 9.9127 18.4149 9.22502 18.4235C8.53426 18.4321 7.99013 17.8922 7.99565 17.2039C8.00117 16.5248 8.52322 15.9991 9.2017 15.9893C9.89368 15.9795 10.4231 16.5101 10.4231 17.2131Z" fill="#EC1C24"/>
    <path d="M13.4153 10.3479C13.6165 10.3314 13.6914 10.4927 13.7914 10.6185C13.892 10.7454 13.7668 10.8209 13.711 10.8982C13.6226 11.0209 13.5159 11.1325 13.4061 11.2374C12.7344 11.8785 12.0608 12.5171 11.386 13.1551C11.2989 13.2373 11.2105 13.3213 11.1105 13.3858C10.9308 13.5017 10.7584 13.479 10.6081 13.322C10.4566 13.1631 10.4505 12.9938 10.5768 12.8195C10.6216 12.7582 10.675 12.7024 10.7308 12.6502C11.4614 11.9601 12.1939 11.2724 12.9233 10.581C13.0638 10.4473 13.2202 10.3602 13.4153 10.3479Z" fill="white"/>
    <path d="M10.5291 11.511C10.5291 11.1994 11.507 10.3105 11.8045 10.332C11.9683 10.3442 12.0628 10.4375 12.1143 10.5835C12.1652 10.7289 12.1554 10.8559 12.0254 10.9669C11.7088 11.2368 11.3984 11.5135 11.0855 11.7877C10.9892 11.8724 10.8923 11.9282 10.761 11.8533C10.6193 11.7724 10.5095 11.6754 10.5291 11.511Z" fill="white"/>
</svg>
